<svg width="21" height="20" viewBox="0 0 21 20" fill="none" xmlns="http://www.w3.org/2000/svg">
<path d="M10.4167 17.375C8.37508 17.375 6.6355 16.6562 5.198 15.2188C3.7605 13.7812 3.04175 12.0417 3.04175 10C3.04175 7.95833 3.7605 6.21875 5.198 4.78125C6.6355 3.34375 8.37508 2.625 10.4167 2.625C11.5001 2.625 12.5244 2.84375 13.4897 3.28125C14.4549 3.71875 15.2779 4.35417 15.9584 5.1875V2.625H17.9584V9.47917H11.0834V7.5H14.4584C14.014 6.80556 13.4376 6.25694 12.7292 5.85417C12.0209 5.45139 11.2501 5.25 10.4167 5.25C9.0973 5.25 7.97578 5.71181 7.05216 6.63542C6.12855 7.55903 5.66675 8.68056 5.66675 10C5.66675 11.3194 6.12855 12.441 7.05216 13.3646C7.97578 14.2882 9.0973 14.75 10.4167 14.75C11.4029 14.75 12.3022 14.4653 13.1147 13.8958C13.9272 13.3264 14.514 12.5833 14.8751 11.6667H17.6042C17.2015 13.3333 16.3334 14.7014 15.0001 15.7708C13.6667 16.8403 12.139 17.375 10.4167 17.375Z" fill="white" fill-opacity="0.8"/>
</svg>
