<svg width="26" height="26" viewBox="0 0 26 26" fill="none" xmlns="http://www.w3.org/2000/svg">
<path d="M4.33325 22.75V21.125H21.6395V22.75H4.33325ZM8.42284 19.5C7.28534 19.5 6.31936 19.1073 5.52492 18.3219C4.73047 17.5365 4.33325 16.575 4.33325 15.4375V3.25H22.2083C22.6551 3.25 23.0377 3.40911 23.3559 3.72734C23.6741 4.04557 23.8333 4.42813 23.8333 4.875V9.20833C23.8333 9.65521 23.6741 10.0378 23.3559 10.356C23.0377 10.6742 22.6551 10.8333 22.2083 10.8333H19.6083V15.4375C19.6083 16.575 19.211 17.5365 18.4166 18.3219C17.6221 19.1073 16.6562 19.5 15.5187 19.5H8.42284ZM19.6083 9.20833H22.2083V4.875H19.6083V9.20833Z" fill="white" fill-opacity="0.8"/>
</svg>
